<?xml version="1.0" encoding="utf-8"?>
<?xml-stylesheet type="text/xsl" href="rss1.xsl"?>
<rss version="2.0" xmlns:atom="http://www.w3.org/2005/Atom" xmlns:content="http://purl.org/rss/1.0/modules/content/" xmlns:dc="http://purl.org/dc/elements/1.1/" xmlns:media="http://search.yahoo.com/mrss/">
<channel>
 <title>Getty</title>
 <link>http://www.gettyimg.com/</link>
 <atom:link href="http://www.gettyimg.com/" rel="self" type="application/rss+xml" />

 
                <item>
                <title><![CDATA[【Apple Music】WEB-RiP - Jerome - Take My Hand (1080p)]]></title>
                <link><![CDATA[https://sharemania.us/threads/jerome-take-my-hand-1080p.249455/]]></link>
                <description><![CDATA[<article>
<blockquote class="messageText SelectQuoteContainer ugc baseHtml">
<img src="https://i.postimg.cc/G2bT0YTJ/Jerome-Take-My-Hand-mp4.jpg" class="bbCodeImage LbImage" alt="[​IMG]" data-url="https://i.postimg.cc/G2bT0YTJ/Jerome-Take-My-Hand-mp4.jpg" style=""><br>
<br>
<div class="bbCodeBlock bbCodeCode">
<div class="type">Code:</div>
<pre>General
Complete name                  : G:\Новая папка\Jerome - Take My Hand.mp4
Format                         : MPEG-4
Format profile                 : Base Media
Codec ID                       : isom (isom/iso2/avc1/mp41)
File size                      : 199 MiB
Duration                       : 2 min 47 s
Overall bit rate               : 9 976 kb/s
Frame rate                     : 25.000 FPS
Movie name                     : Take My Hand
Performer                      : Jerome
Genre                          : Dance
ContentType                    : Music Video
Recorded date                  : 2020-03-19 07:00:00 UTC
Writing application            : Lavf56.30.100
Copyright                      : ℗ 2020 Kontor Records GmbH

Video
ID                             : 1
Format                         : AVC
Format/Info                    : Advanced Video Codec
Format profile                 : High@L4
Format settings                : CABAC / 5 Ref Frames
Format settings, CABAC         : Yes
Format settings, Reference fra : 5 frames
Format settings, Slice count   : 8 slices per frame
Codec ID                       : avc1
Codec ID/Info                  : Advanced Video Coding
Duration                       : 2 min 47 s
Bit rate                       : 9 727 kb/s
Width                          : 1 920 pixels
Height                         : 832 pixels
Display aspect ratio           : 2.35:1
Frame rate mode                : Constant
Frame rate                     : 25.000 FPS
Color space                    : YUV
Chroma subsampling             : 4:2:0
Bit depth                      : 8 bits
Scan type                      : Progressive
Bits/(Pixel*Frame)             : 0.244
Stream size                    : 194 MiB (97%)
Color range                    : Limited
Color primaries                : BT.709
Transfer characteristics       : BT.709
Matrix coefficients            : BT.709
Codec configuration box        : avcC

Audio
ID                             : 2
Format                         : AAC LC
Format/Info                    : Advanced Audio Codec Low Complexity
Codec ID                       : mp4a-40-2
Duration                       : 2 min 47 s
Bit rate mode                  : Constant
Bit rate                       : 246 kb/s
Channel(s)                     : 2 channels
Channel layout                 : L R
Sampling rate                  : 48.0 kHz
Frame rate                     : 46.875 FPS (1024 SPF)
Compression mode               : Lossy
Stream size                    : 4.90 MiB (2%)
Default                        : Yes
Alternate group                : 1

</pre>
</div>
<div class="bbCodeBlock bbCodeVfcHH HiddenContent">
<div class="attribution type">Hidden Content:</div>
<blockquote>You must either reply or click 'Like' to see the hidden information contained here.</blockquote>
</div>
<div class="messageTextEndMarker">&nbsp;</div>
</blockquote>
</article>]]></description>
                <author><![CDATA[vitalya3]]></author>
                </item>

                
                <item>
                <title><![CDATA[【UPSCALED】2NE1 - Come Back Home [RTX HDR10 - 1080p]]]></title>
                <link><![CDATA[https://sharemania.us/threads/2ne1-come-back-home-rtx-hdr10-1080p.249454/]]></link>
                <description><![CDATA[<article>
<blockquote class="messageText SelectQuoteContainer ugc baseHtml">
<a href="https://sharemania.us/members/115292/" class="username" data-user="115292, @2NE1">@2NE1</a> <span style="font-size: 18px">Well, this one is for your request. I re-encoded slightly with Lanczos Sharpness scaling, it should be looking good,<br>
and about the color space and HDR, NVIDIA got you covered.<br>
<br>
The melody actually giving me some goosebumps <img src="styles/default/xenforo/smilies/big_smile-48.png" class="mceSmilie" alt=":)" title="Smile    :)">))))</span><br>
<br>
(and you really need a good HDR monitor to enjoy the richness to your bare eyes)<br>
<br>
<div class="bbCodeBlock bbCodeVfcHH HiddenContent">
<div class="attribution type">Hidden Content:</div>
<blockquote>You must either reply or click 'Like' to see the hidden information contained here.</blockquote>
</div>
<div class="bbCodeBlock bbCodeVfcHH HiddenContent">
<div class="attribution type">Hidden Content:</div>
<blockquote>You must reply before you can see the hidden data contained here.</blockquote>
</div>
<div class="messageTextEndMarker">&nbsp;</div>
</blockquote>
</article>]]></description>
                <author><![CDATA[ch3v4li3r]]></author>
                </item>

                
                <item>
                <title><![CDATA[【Apple Music】WEB-RiP - Dash Berlin ft. Jonathan Mendelsohn - Better Half Of Me [Ultra Edit] (1080p)]]></title>
                <link><![CDATA[https://sharemania.us/threads/dash-berlin-ft-jonathan-mendelsohn-better-half-of-me-ultra-edit-1080p.249457/]]></link>
                <description><![CDATA[<article>
<blockquote class="messageText SelectQuoteContainer ugc baseHtml">
<img src="https://i.postimg.cc/C59F0Bxx/Dash-Berlin-ft-Jonathan-Mendelsohn-Better-Half-Of-Me-Ultra-Edit-mp4.jpg" class="bbCodeImage LbImage" alt="[​IMG]" data-url="https://i.postimg.cc/C59F0Bxx/Dash-Berlin-ft-Jonathan-Mendelsohn-Better-Half-Of-Me-Ultra-Edit-mp4.jpg" style=""><br>
<br>
<div class="bbCodeBlock bbCodeCode">
<div class="type">Code:</div>
<pre>General
Complete name                  : G:\Новая папка\Dash Berlin ft. Jonathan Mendelsohn - Better Half Of Me [Ultra Edit].mp4
Format                         : MPEG-4
Format profile                 : Base Media
Codec ID                       : isom (isom/iso2/avc1/mp41)
File size                      : 115 MiB
Duration                       : 2 min 19 s
Overall bit rate               : 6 940 kb/s
Frame rate                     : 25.000 FPS
Movie name                     : Better Half of Me (feat. Jonathan Mendelsohn) [Ultra Edit]
Performer                      : Dash Berlin
Genre                          : Dance
ContentType                    : Music Video
Recorded date                  : 2022-05-18 07:00:00 UTC
Writing application            : Lavf56.30.100
Copyright                      : ℗ 2022 Dash Berlin

Video
ID                             : 1
Format                         : AVC
Format/Info                    : Advanced Video Codec
Format profile                 : High@L4
Format settings                : CABAC / 4 Ref Frames
Format settings, CABAC         : Yes
Format settings, Reference fra : 4 frames
Format settings, Slice count   : 8 slices per frame
Codec ID                       : avc1
Codec ID/Info                  : Advanced Video Coding
Duration                       : 2 min 19 s
Bit rate                       : 6 688 kb/s
Width                          : 1 920 pixels
Height                         : 1 080 pixels
Display aspect ratio           : 16:9
Frame rate mode                : Constant
Frame rate                     : 25.000 FPS
Color space                    : YUV
Chroma subsampling             : 4:2:0
Bit depth                      : 8 bits
Scan type                      : Progressive
Bits/(Pixel*Frame)             : 0.129
Stream size                    : 111 MiB (96%)
Color range                    : Limited
Color primaries                : BT.709
Transfer characteristics       : BT.709
Matrix coefficients            : BT.709
Codec configuration box        : avcC

Audio
ID                             : 2
Format                         : AAC LC
Format/Info                    : Advanced Audio Codec Low Complexity
Codec ID                       : mp4a-40-2
Duration                       : 2 min 19 s
Duration_LastFrame             : -1 ms
Bit rate mode                  : Constant
Bit rate                       : 251 kb/s
Channel(s)                     : 2 channels
Channel layout                 : L R
Sampling rate                  : 48.0 kHz
Frame rate                     : 46.875 FPS (1024 SPF)
Compression mode               : Lossy
Stream size                    : 4.16 MiB (4%)
Default                        : Yes
Alternate group                : 1

</pre>
</div>
<div class="bbCodeBlock bbCodeVfcHH HiddenContent">
<div class="attribution type">Hidden Content:</div>
<blockquote>You must either reply or click 'Like' to see the hidden information contained here.</blockquote>
</div>
<div class="messageTextEndMarker">&nbsp;</div>
</blockquote>
</article>]]></description>
                <author><![CDATA[vitalya3]]></author>
                </item>

                
                <item>
                <title><![CDATA[【UPSCALED】Dead Or Alive - You Spin Me Round [RTX HDR10]]]></title>
                <link><![CDATA[https://sharemania.us/threads/dead-or-alive-you-spin-me-round-rtx-hdr10.249456/]]></link>
                <description><![CDATA[<article>
<blockquote class="messageText SelectQuoteContainer ugc baseHtml">
GRACIAS
<div class="messageTextEndMarker">&nbsp;</div>
</blockquote>
</article>]]></description>
                <author><![CDATA[ch3v4li3r]]></author>
                </item>

                </channel></rss>